<svg width="1920" height="194" viewBox="0 0 1920 194" fill="none" xmlns="http://www.w3.org/2000/svg">
<mask id="mask0_576_33172" style="mask-type:alpha" maskUnits="userSpaceOnUse" x="0" y="0" width="1920" height="194">
<rect width="1920" height="194" fill="#D9D9D9"/>
</mask>
<g mask="url(#mask0_576_33172)">
<g opacity="0.5">
<path d="M55.5761 152.732V45.6787H83.5117V204.098H59.6825L-27.5202 96.1842L-28.4091 95.0842V96.4985V203.552H-56.8906V45.6787H-33.0598L54.6889 153.048L55.5761 154.134V152.732Z" stroke="#373740"/>
<path d="M156.622 69.7926H156.122V70.2926V118.883V119.383H156.622H232.556V143.497H156.622H156.122V143.997V204.643H127.641V45.6787H242.929V69.7926H156.622Z" stroke="#373740"/>
<path d="M272.324 45.6787H300.806V204.098H272.324V45.6787Z" stroke="#373740"/>
<path d="M457.4 152.732V45.6787H485.336V204.098H461.507L374.304 96.1842L373.415 95.0842V96.4985V203.552H344.934V45.6787H368.764L456.513 153.048L457.4 154.134V152.732Z" stroke="#373740"/>
<path d="M528.922 45.6787H557.403V204.098H528.922V45.6787Z" stroke="#373740"/>
<path d="M632.701 69.7926H632.201H580.789V45.6787H714.64V69.7926H662.182H661.682V70.2926V204.098H633.201V70.7926H633.247V70.2926V69.7926H632.701Z" stroke="#373740"/>
<path d="M767.548 179.984H857.131V203.552H738.566V45.6787H853.855V69.7926H767.548H767.048V70.2926V111.785V112.285H767.548H844.028V135.307H767.548H767.048V135.807V179.484V179.984H767.548Z" stroke="#373740"/>
<path d="M966.983 200.853L966.973 200.849L966.962 200.846C955.723 197.635 946.613 192.847 940.14 187.536L950.1 165.519C956.611 170.315 964.666 174.568 973.756 177.776C983.091 181.071 992.974 182.718 1002.31 182.718C1014.35 182.718 1023.2 181.081 1029.33 177.181C1035.47 173.278 1038.3 168.214 1038.3 162.018C1038.3 157.509 1036.6 153.563 1033.24 150.2C1029.89 146.847 1025.44 144.631 1020.49 142.981C1015.56 141.34 1008.45 139.15 1000.23 137.507C988.252 134.784 978.448 131.516 970.815 128.79C963.265 126.094 956.787 121.237 951.925 115.295L951.917 115.285L951.908 115.276C946.556 109.388 943.849 101.332 943.849 90.4981C943.849 81.8484 946.01 73.7621 950.858 66.7607C955.715 59.7441 962.733 53.8025 972.466 50.0175L972.477 50.0132L972.488 50.0084C982.236 45.6757 993.629 43.5 1007.77 43.5C1017.56 43.5 1026.79 44.5871 1036.57 47.3034L1036.58 47.3061L1036.59 47.3084C1045.65 49.4406 1053.67 53.1462 1060.65 57.3999L1051.75 79.3913C1044.77 75.1716 1037.78 72.5034 1030.29 70.3629C1022.61 68.1684 1015.47 67.068 1008.32 67.068C996.798 67.068 987.958 69.2609 981.844 73.1516L981.834 73.1575L981.825 73.1638C976.253 77.0642 972.877 82.6671 972.877 89.4062C972.877 93.9073 974.569 97.8755 977.97 100.709C981.304 103.488 985.729 105.695 990.644 107.88L990.666 107.889L990.689 107.897C995.612 109.538 1002.73 111.728 1010.94 113.371C1022.94 116.098 1032.18 118.819 1039.79 122.077L1039.8 122.083L1039.81 122.088C1047.36 124.784 1053.85 129.643 1059.27 135.603C1064.62 141.493 1067.33 149.55 1067.33 159.834C1067.33 168.484 1065.17 176.57 1060.32 183.572C1055.47 190.576 1048.45 195.984 1038.69 200.324C1028.94 204.656 1017.55 206.831 1003.41 206.832C990.344 206.287 978.386 204.653 966.983 200.853Z" stroke="#373740"/>
<path d="M1161.29 148.108L1161.22 148.226V148.364V204.098H1132.74V148.91V148.771L1132.67 148.651L1070.34 45.6787H1100.84L1147.1 122.961L1147.53 123.674L1147.96 122.963L1194.76 45.6787H1222.53L1161.29 148.108Z" stroke="#373740"/>
<path d="M1353.86 152.732V45.6787H1381.8V204.098H1357.97L1270.76 96.1842L1269.88 95.0842V96.4985V203.552H1241.39V45.6787H1265.23L1352.97 153.048L1353.86 154.134V152.732Z" stroke="#373740"/>
<path d="M1454.36 179.984H1543.94V203.552H1425.38V45.6787H1540.66V69.7926H1454.36H1453.86V70.2926V111.785V112.285H1454.36H1530.84V135.307H1454.36H1453.86V135.807V179.484V179.984H1454.36Z" stroke="#373740"/>
<path d="M1606.73 158.191V204.098H1578.25V45.6787H1643.26C1656.86 45.6787 1668.8 47.8541 1679.1 52.191C1689.38 56.5201 1696.94 63.0049 1702.35 71.6495C1707.75 80.2985 1710.46 90.0323 1710.46 101.412C1710.46 113.345 1707.75 123.614 1701.81 132.248C1695.86 140.898 1687.76 147.382 1676.94 151.168L1676.32 151.386L1676.7 151.926L1712.73 203.552H1682.02H1681.9L1649.67 157.903L1649.53 157.691H1649.27H1649.26H1649.25H1649.24H1649.23H1649.22H1649.21H1649.2H1649.19H1649.18H1649.17H1649.16H1649.15H1649.14H1649.13H1649.12H1649.11H1649.1H1649.09H1649.08H1649.07H1649.06H1649.06H1649.05H1649.04H1649.03H1649.02H1649.01H1649H1648.99H1648.98H1648.97H1648.96H1648.95H1648.94H1648.93H1648.92H1648.91H1648.9H1648.89H1648.88H1648.87H1648.86H1648.85H1648.84H1648.83H1648.82H1648.81H1648.8H1648.8H1648.79H1648.78H1648.77H1648.76H1648.75H1648.74H1648.73H1648.72H1648.71H1648.7H1648.69H1648.68H1648.67H1648.66H1648.65H1648.64H1648.63H1648.62H1648.61H1648.6H1648.59H1648.58H1648.57H1648.56H1648.55H1648.54H1648.53H1648.52H1648.51H1648.5H1648.49H1648.48H1648.47H1648.47H1648.46H1648.45H1648.44H1648.43H1648.42H1648.41H1648.4H1648.39H1648.38H1648.37H1648.36H1648.35H1648.34H1648.33H1648.32H1648.31H1648.3H1648.29H1648.28H1648.27H1648.26H1648.25H1648.24H1648.23H1648.22H1648.21H1648.2H1648.19H1648.18H1648.17H1648.16H1648.15H1648.14H1648.13H1648.12H1648.11H1648.1H1648.09H1648.08H1648.07H1648.06H1648.05H1648.04H1648.03H1648.02H1648.01H1648H1647.99H1647.98H1647.97H1647.96H1647.95H1647.94H1647.93H1647.92H1647.91H1647.9H1647.89H1647.88H1647.87H1647.86H1647.85H1647.84H1647.83H1647.82H1647.81H1647.8H1647.79H1647.78H1647.77H1647.76H1647.75H1647.74H1647.73H1647.72H1647.71H1647.7H1647.69H1647.68H1647.67H1647.66H1647.65H1647.64H1647.63H1647.62H1647.61H1647.59H1647.58H1647.57H1647.56H1647.55H1647.54H1647.53H1647.52H1647.51H1647.5H1647.49H1647.48H1647.47H1647.46H1647.45H1647.44H1647.43H1647.42H1647.41H1647.4H1647.39H1647.38H1647.37H1647.36H1647.35H1647.33H1647.32H1647.31H1647.3H1647.29H1647.28H1647.27H1647.26H1647.25H1647.24H1647.23H1647.22H1647.21H1647.2H1647.19H1647.18H1647.16H1647.15H1647.14H1647.13H1647.12H1647.11H1647.1H1647.09H1647.08H1647.07H1647.06H1647.05H1647.04H1647.03H1647.01H1647H1646.99H1646.98H1646.97H1646.96H1646.95H1646.94H1646.93H1646.92H1646.91H1646.89H1646.88H1646.87H1646.86H1646.85H1646.84H1646.83H1646.82H1646.81H1646.8H1646.78H1646.77H1646.76H1646.75H1646.74H1646.73H1646.72H1646.71H1646.7H1646.68H1646.67H1646.66H1646.65H1646.64H1646.63H1646.62H1646.61H1646.59H1646.58H1646.57H1646.56H1646.55H1646.54H1646.53H1646.51H1646.5H1646.49H1646.48H1646.47H1646.46H1646.45H1646.43H1646.42H1646.41H1646.4H1646.39H1646.38H1646.37H1646.35H1646.34H1646.33H1646.32H1646.31H1646.3H1646.28H1646.27H1646.26H1646.25H1646.24H1646.23H1646.21H1646.2H1646.19H1646.18H1646.17H1646.16H1646.14H1646.13H1646.12H1646.11H1646.1H1646.08H1646.07H1646.06H1646.05H1646.04H1646.02H1646.01H1646H1645.99H1645.98H1645.96H1645.95H1645.94H1645.93H1645.92H1645.9H1645.89H1645.88H1645.87H1645.86H1645.84H1645.83H1645.82H1645.81H1645.79H1645.78H1645.77H1645.76H1645.75H1645.73H1645.72H1645.71H1645.7H1645.68H1645.67H1645.66H1645.65H1645.63H1645.62H1645.61H1645.6H1645.58H1645.57H1645.56H1645.55H1645.53H1645.52H1645.51H1645.5H1645.48H1645.47H1645.46H1645.44H1645.43H1645.42H1645.41H1645.39H1645.38H1645.37H1645.35H1645.34H1645.33H1645.32H1645.3H1645.29H1645.28H1645.26H1645.25H1645.24H1645.23H1645.21H1645.2H1645.19H1645.17H1645.16H1645.15H1645.13H1645.12H1645.11H1645.09H1645.08H1645.07H1645.05H1645.04H1645.03H1645.01H1645H1644.99H1644.97H1644.96H1644.95H1644.93H1644.92H1644.91H1644.89H1644.88H1644.87H1644.85H1644.84H1644.83H1644.81H1644.8H1644.78H1644.77H1644.76H1644.74H1644.73H1644.72H1644.7H1644.69H1644.67H1644.66H1644.65H1644.63H1644.62H1644.6H1644.59H1644.58H1644.56H1644.55H1644.53H1644.52H1644.51H1644.49H1644.48H1644.46H1644.45H1644.44H1644.42H1644.41H1644.39H1644.38H1644.36H1644.35H1644.34H1644.32H1644.31H1644.29H1644.28H1644.26H1644.25H1644.24H1644.22H1644.21H1644.19H1644.18H1644.16H1644.15H1644.13H1644.12H1644.1H1644.09H1644.07H1644.06H1644.04H1644.03H1644.02H1644H1643.99H1643.97H1643.96H1643.94H1643.93H1643.91H1643.9H1643.88H1643.87H1643.85H1643.84H1643.82H1643.81H1643.79H1643.78H1643.76H1643.74H1643.73H1643.71H1643.7H1643.68H1643.67H1643.65H1643.64H1643.62H1643.61H1643.59H1643.58H1643.56H1643.54H1643.53H1643.51H1643.5H1643.48H1643.47H1643.45H1643.44H1643.42H1643.4H1643.39H1643.37H1643.36H1643.34H1643.32H1643.31H1643.29H1643.28H1643.26H1607.23H1606.73V158.191ZM1607.23 69.7926H1606.73V70.2926V133.623V134.123H1607.23H1641.62C1654.78 134.123 1664.75 131.384 1671.42 125.818C1678.11 120.243 1681.43 111.898 1681.43 101.958C1681.43 91.4668 1678.11 83.6702 1671.42 78.0978C1664.75 72.5324 1654.78 69.7926 1641.62 69.7926H1607.23Z" stroke="#373740"/>
<path d="M1774.54 196.536L1774.53 196.531C1761.5 189.475 1751.2 179.712 1744.15 167.243C1737.1 154.761 1733.3 141.196 1733.3 125.451C1733.3 109.705 1737.1 96.1412 1744.15 83.6584C1751.2 71.1899 1761.5 61.4269 1774.53 54.3704C1787.55 47.3191 1802.2 44.0576 1818.51 44.0576C1831.56 44.0576 1844.05 46.2328 1854.91 50.5733C1865.6 54.8496 1874.7 61.2293 1881.7 69.1891L1863.83 86.5333C1851.79 74.6586 1837.04 68.7175 1820.15 68.7175C1808.62 68.7175 1798.7 70.9147 1789.88 75.8791C1781.06 80.837 1774.46 87.4474 1768.96 95.6919L1768.95 95.7077L1768.94 95.7241C1763.99 104.529 1761.23 113.894 1761.23 124.905C1761.23 135.362 1763.98 145.277 1768.94 153.546C1773.91 162.369 1781.08 168.98 1789.88 173.931C1798.7 178.894 1808.62 181.092 1819.6 181.092C1832.23 181.092 1843.24 178.346 1852.61 172.834L1852.86 172.689V172.403V123.767H1852.91H1880.25V186.357C1872.16 192.791 1862.99 197.632 1851.66 201.408C1840.78 204.673 1829.37 206.844 1817.97 206.844C1801.65 206.844 1787 203.582 1774.54 196.536Z" stroke="#373740"/>
<path d="M1987.88 148.108L1987.81 148.226V148.364V204.098H1959.32V148.91V148.771L1959.25 148.651L1896.93 45.6787H1927.42L1973.68 122.961L1974.11 123.674L1974.54 122.963L2021.34 45.6787H2049.12L1987.88 148.108Z" stroke="#373740"/>
</g>
</g>
</svg>
